<?xml version="1.0" standalone="no"?>
<!DOCTYPE svg PUBLIC "-//W3C//DTD SVG 1.1//EN" "http://www.w3.org/Graphics/SVG/1.1/DTD/svg11.dtd">
<svg width="256px" height="256px" version="1.1" xmlns="http://www.w3.org/2000/svg" xmlns:xlink="http://www.w3.org/1999/xlink" xml:space="preserve" style="fill-rule:evenodd;clip-rule:evenodd;stroke-linejoin:round;stroke-miterlimit:1.41421;">
    <g>
        <g>
            <rect x="2.55795e-13" y="-1.42109e-14" width="256" height="256" style="fill:white;"/>
        </g>
        <g>
            <path d="M197.784,238.305C197.958,230.624 196.75,226.621 195.075,223.281C193.247,219.311 187.765,213.284 187.765,213.284C187.765,213.284 189.135,214.165 192.475,217.82C196.413,222.15 199.905,229.645 197.784,238.305ZM59.1775,223.586C57.6328,226.991 56.5667,231.027 57.0344,238.697C54.5867,230.124 57.8068,222.509 61.5817,218.038C64.7801,214.263 66.1182,213.316 66.1182,213.316C66.1182,213.316 60.8637,219.55 59.1775,223.586ZM95.0122,44.5976C80.935,24.4719 59.9499,15.6057 45.7966,25.4945C46.4276,24.9179 47.1021,24.374 47.8092,23.8845C60.755,14.8224 82.197,23.1338 95.6976,42.4327C101.365,50.5591 104.738,59.3274 105.76,67.4321C104.085,60.3065 99.875,51.56 95.0122,44.5976ZM78.607,98.5019C68.3266,96.1956 57.426,88.6566 49.3975,77.1795C60.0152,90.1796 68.7835,93.8784 79.1836,96.0215C80.2932,96.3587 79.6187,98.5236 78.607,98.5019ZM177.68,86.6875C178.953,86.6114 181.879,86.644 183.206,85.1536C184.653,83.5109 186.818,80.3887 191.942,72.8498C187.786,79.8665 184.414,85.5235 183.098,87.6666C182.662,88.3846 181.999,88.5587 181.226,88.3302C178.583,87.5143 171.784,86.3612 163.124,92.0072C163.124,92.0072 168.596,87.2206 177.68,86.6875ZM131.641,138.416C145.664,116.452 157.696,98.763 161.394,96.3914C170.272,90.4298 177.375,91.1696 180.03,91.942C180.813,92.1704 181.477,91.9746 181.934,91.2349C186.807,83.3695 219.498,29.4652 219.498,29.4652L219.313,29.2151L219.041,29.1389L183.25,75.1887C183.25,75.1887 182.695,75.9284 181.988,75.428C181.281,74.9385 181.792,74.177 181.792,74.177L212.633,24.6786L212.459,24.4066L212.144,24.3305L176.233,70.2498C176.233,70.2498 175.678,71.0113 175.026,70.5543C174.384,70.0974 174.884,69.3141 174.884,69.3141L205.812,19.9028L205.627,19.6417L205.323,19.5546L169.292,65.4195C169.292,65.4195 168.738,66.1484 168.052,65.6589C167.367,65.1802 167.845,64.397 167.845,64.397L198.948,15.0509L198.774,14.8116L198.491,14.7245C198.491,14.7245 158.947,63.8421 153.214,71.0982C152.67,71.7836 152.713,72.4799 153.203,73.1326C154.835,75.3627 157.946,81.7921 155.368,92.1704C154.443,96.337 142.563,112.84 127.333,132.748C118.325,120.814 111.602,111.197 109.775,106.868L109.775,106.879C107.338,102.853 107.468,96.337 109.307,88.1562L110.417,83.8699C110.58,83.1955 110.721,82.521 110.786,81.8247C111.95,70.3802 107.958,56.2052 98.9829,43.3574C83.8614,21.7305 60.298,12.0919 46.3624,21.8392C32.4157,31.5866 33.3839,57.0211 48.5055,78.659C57.7089,91.8223 70.0454,100.547 81.4355,103.158C81.479,103.169 85.3628,103.55 85.3628,103.55C94.5226,104.55 101.3,106.694 104.433,110.61C107.98,113.884 115.116,124.165 123.678,137.502C99.6574,168.637 69.1642,206.093 59.2102,217.962C55.6202,222.226 52.6938,229.363 54.0209,237.271C54.2277,238.512 54.8369,239.676 55.8377,240.383C55.8487,240.394 55.8487,240.394 55.8595,240.394C56.3817,240.763 56.9473,241.014 57.5022,241.155C58.1005,241.307 58.7424,241.307 59.3625,241.199C67.3475,239.784 73.1132,234.552 75.9308,229.689C83.4916,216.623 107.24,176.96 127.953,144.214C146.969,174.349 170.859,215.34 179.127,229.667C181.955,234.573 187.786,239.85 195.869,241.21C197.001,241.405 198.143,241.133 199.057,240.492L199.078,240.481C199.47,240.209 199.796,239.904 200.079,239.556C200.569,238.968 200.884,238.218 201.015,237.445C202.418,229.46 199.481,222.27 195.869,217.962C184.99,204.961 153.496,166.918 131.641,138.416Z" style="fill:black;fill-rule:nonzero;"/>
        </g>
    </g>
</svg>
